<mxfile host="app.diagrams.net" agent="Mozilla/5.0 (Windows NT 10.0; Win64; x64) AppleWebKit/537.36 (KHTML, like Gecko) Chrome/130.0.0.0 Safari/537.36" version="24.8.3">
  <diagram name="Halaman-1" id="TZsTCueLacz2FcIuYHnX">
    <mxGraphModel dx="2788" dy="1872" grid="1" gridSize="10" guides="1" tooltips="1" connect="1" arrows="1" fold="1" page="1" pageScale="1" pageWidth="827" pageHeight="1169" math="0" shadow="0">
      <root>
        <mxCell id="0" />
        <mxCell id="1" parent="0" />
        <UserObject label="&lt;table xmlns=&quot;http://www.w3.org/1999/xhtml&quot; cellspacing=&quot;0&quot; cellpadding=&quot;0&quot; dir=&quot;ltr&quot; border=&quot;1&quot; style=&quot;table-layout:fixed;font-size:10pt;font-family:Arial;width:0px;border-collapse:collapse;border:none&quot; data-sheets-root=&quot;1&quot; data-sheets-baot=&quot;1&quot;&gt;&lt;colgroup&gt;&lt;col width=&quot;100&quot;&gt;&lt;col width=&quot;137&quot;&gt;&lt;col width=&quot;106&quot;&gt;&lt;col width=&quot;172&quot;&gt;&lt;/colgroup&gt;&lt;tbody&gt;&lt;tr style=&quot;height:21px;&quot;&gt;&lt;td style=&quot;overflow:hidden;padding:2px 3px 2px 3px;vertical-align:bottom;background-color:#f9cb9c;font-weight:bold;text-align:center;&quot;&gt;StudentName&lt;/td&gt;&lt;td style=&quot;overflow:hidden;padding:2px 3px 2px 3px;vertical-align:bottom;background-color:#f9cb9c;font-weight:bold;text-align:center;&quot;&gt;Skills&lt;/td&gt;&lt;td style=&quot;overflow:hidden;padding:2px 3px 2px 3px;vertical-align:bottom;background-color:#f9cb9c;font-weight:bold;text-align:center;&quot;&gt;InstructorName&lt;/td&gt;&lt;td style=&quot;overflow:hidden;padding:2px 3px 2px 3px;vertical-align:bottom;background-color:#f9cb9c;font-weight:bold;text-align:center;&quot;&gt;InstructorEmail&lt;/td&gt;&lt;/tr&gt;&lt;tr style=&quot;height:21px;&quot;&gt;&lt;td style=&quot;overflow:hidden;padding:2px 3px 2px 3px;vertical-align:bottom;&quot;&gt;Alice Smith&lt;/td&gt;&lt;td style=&quot;overflow:hidden;padding:2px 3px 2px 3px;vertical-align:bottom;&quot;&gt;Python, SQL&lt;/td&gt;&lt;td style=&quot;overflow:hidden;padding:2px 3px 2px 3px;vertical-align:bottom;&quot;&gt;Dr. John Doe&lt;/td&gt;&lt;td style=&quot;overflow:hidden;padding:2px 3px 2px 3px;vertical-align:bottom;&quot;&gt;john.doe@university.edu&lt;/td&gt;&lt;/tr&gt;&lt;tr style=&quot;height:21px;&quot;&gt;&lt;td style=&quot;overflow:hidden;padding:2px 3px 2px 3px;vertical-align:bottom;&quot;&gt;Bob Johnson&lt;/td&gt;&lt;td style=&quot;overflow:hidden;padding:2px 3px 2px 3px;vertical-align:bottom;&quot;&gt;Java, C++, JavaScript&lt;/td&gt;&lt;td style=&quot;overflow:hidden;padding:2px 3px 2px 3px;vertical-align:bottom;&quot;&gt;Dr. John Doe&lt;/td&gt;&lt;td style=&quot;overflow:hidden;padding:2px 3px 2px 3px;vertical-align:bottom;&quot;&gt;john.doe@university.edu&lt;/td&gt;&lt;/tr&gt;&lt;tr style=&quot;height:21px;&quot;&gt;&lt;td style=&quot;overflow:hidden;padding:2px 3px 2px 3px;vertical-align:bottom;&quot;&gt;Carol Lee&lt;/td&gt;&lt;td style=&quot;overflow:hidden;padding:2px 3px 2px 3px;vertical-align:bottom;&quot;&gt;Python, R&lt;/td&gt;&lt;td style=&quot;overflow:hidden;padding:2px 3px 2px 3px;vertical-align:bottom;&quot;&gt;Dr. Emily Brown&lt;/td&gt;&lt;td style=&quot;overflow:hidden;padding:2px 3px 2px 3px;vertical-align:bottom;&quot;&gt;emily.brown@university.edu&lt;/td&gt;&lt;/tr&gt;&lt;tr style=&quot;height:21px;&quot;&gt;&lt;td style=&quot;overflow:hidden;padding:2px 3px 2px 3px;vertical-align:bottom;&quot;&gt;Alice Smith&lt;/td&gt;&lt;td style=&quot;overflow:hidden;padding:2px 3px 2px 3px;vertical-align:bottom;&quot;&gt;SQL, C#&lt;/td&gt;&lt;td style=&quot;overflow:hidden;padding:2px 3px 2px 3px;vertical-align:bottom;&quot;&gt;Dr. Jane White&lt;/td&gt;&lt;td style=&quot;overflow:hidden;padding:2px 3px 2px 3px;vertical-align:bottom;&quot;&gt;jane.white@university.edu&lt;/td&gt;&lt;/tr&gt;&lt;/tbody&gt;&lt;/table&gt;" id="SAuL4ZHzkhVfNu2EItm8-41">
          <mxCell style="text;whiteSpace=wrap;html=1;" parent="1" vertex="1">
            <mxGeometry x="-1630" y="-1150" width="560" height="140" as="geometry" />
          </mxCell>
        </UserObject>
        <mxCell id="SAuL4ZHzkhVfNu2EItm8-42" value="" style="html=1;shadow=0;dashed=0;align=center;verticalAlign=middle;shape=mxgraph.arrows2.uTurnArrow;dy=11;arrowHead=43;dx2=25;rotation=-179;" parent="1" vertex="1">
          <mxGeometry x="-1110.7" y="-1040.01" width="100" height="180" as="geometry" />
        </mxCell>
        <mxCell id="SAuL4ZHzkhVfNu2EItm8-44" value="1NF" style="text;strokeColor=none;fillColor=none;html=1;fontSize=24;fontStyle=1;verticalAlign=middle;align=center;" parent="1" vertex="1">
          <mxGeometry x="-1130" y="-980" width="100" height="50" as="geometry" />
        </mxCell>
        <UserObject label="&lt;table xmlns=&quot;http://www.w3.org/1999/xhtml&quot; cellspacing=&quot;0&quot; cellpadding=&quot;0&quot; dir=&quot;ltr&quot; border=&quot;1&quot; style=&quot;table-layout:fixed;font-size:10pt;font-family:Arial;width:0px;border-collapse:collapse;border:none&quot; data-sheets-root=&quot;1&quot; data-sheets-baot=&quot;1&quot;&gt;&lt;colgroup&gt;&lt;col width=&quot;100&quot;&gt;&lt;col width=&quot;100&quot;&gt;&lt;col width=&quot;100&quot;&gt;&lt;col width=&quot;172&quot;&gt;&lt;col width=&quot;172&quot;&gt;&lt;/colgroup&gt;&lt;tbody&gt;&lt;tr style=&quot;height:21px;&quot;&gt;&lt;td style=&quot;overflow:hidden;padding:2px 3px 2px 3px;vertical-align:bottom;font-weight:bold;&quot;&gt;Student&#39;s skills&lt;/td&gt;&lt;td style=&quot;overflow:hidden;padding:2px 3px 2px 3px;vertical-align:bottom;&quot;&gt;&lt;/td&gt;&lt;td style=&quot;overflow:hidden;padding:2px 3px 2px 3px;vertical-align:bottom;&quot;&gt;&lt;/td&gt;&lt;td style=&quot;overflow:hidden;padding:2px 3px 2px 3px;vertical-align:bottom;&quot;&gt;&lt;/td&gt;&lt;td style=&quot;overflow:hidden;padding:2px 3px 2px 3px;vertical-align:bottom;&quot;&gt;&lt;/td&gt;&lt;/tr&gt;&lt;tr style=&quot;height:21px;&quot;&gt;&lt;td style=&quot;overflow:hidden;padding:2px 3px 2px 3px;vertical-align:bottom;background-color:#f9cb9c;font-weight:bold;text-align:center;&quot;&gt;Student ID (PK)&lt;/td&gt;&lt;td style=&quot;overflow:hidden;padding:2px 3px 2px 3px;vertical-align:bottom;background-color:#f9cb9c;font-weight:bold;text-align:center;&quot;&gt;StudentName&lt;/td&gt;&lt;td style=&quot;overflow:hidden;padding:2px 3px 2px 3px;vertical-align:bottom;background-color:#f9cb9c;font-weight:bold;text-align:center;&quot;&gt;Skills&lt;/td&gt;&lt;td style=&quot;overflow:hidden;padding:2px 3px 2px 3px;vertical-align:bottom;background-color:#f9cb9c;font-weight:bold;text-align:center;&quot;&gt;InstructorName&lt;/td&gt;&lt;td style=&quot;overflow:hidden;padding:2px 3px 2px 3px;vertical-align:bottom;background-color:#f9cb9c;font-weight:bold;text-align:center;&quot;&gt;InstructorEmail&lt;/td&gt;&lt;/tr&gt;&lt;tr style=&quot;height:21px;&quot;&gt;&lt;td style=&quot;overflow:hidden;padding:2px 3px 2px 3px;vertical-align:bottom;&quot;&gt;1&lt;/td&gt;&lt;td style=&quot;overflow:hidden;padding:2px 3px 2px 3px;vertical-align:bottom;&quot;&gt;Alice Smith&lt;/td&gt;&lt;td style=&quot;overflow:hidden;padding:2px 3px 2px 3px;vertical-align:bottom;&quot;&gt;Phyton&lt;/td&gt;&lt;td style=&quot;overflow:hidden;padding:2px 3px 2px 3px;vertical-align:bottom;&quot;&gt;Dr. John Doe&lt;/td&gt;&lt;td style=&quot;overflow:hidden;padding:2px 3px 2px 3px;vertical-align:bottom;&quot;&gt;john.doe@university.edu&lt;/td&gt;&lt;/tr&gt;&lt;tr style=&quot;height:21px;&quot;&gt;&lt;td style=&quot;overflow:hidden;padding:2px 3px 2px 3px;vertical-align:bottom;&quot;&gt;1&lt;/td&gt;&lt;td style=&quot;overflow:hidden;padding:2px 3px 2px 3px;vertical-align:bottom;&quot;&gt;Alice Smith&lt;/td&gt;&lt;td style=&quot;overflow:hidden;padding:2px 3px 2px 3px;vertical-align:bottom;&quot;&gt;SQL&lt;/td&gt;&lt;td style=&quot;overflow:hidden;padding:2px 3px 2px 3px;vertical-align:bottom;&quot;&gt;Dr. John Doe&lt;/td&gt;&lt;td style=&quot;overflow:hidden;padding:2px 3px 2px 3px;vertical-align:bottom;&quot;&gt;john.doe@university.edu&lt;/td&gt;&lt;/tr&gt;&lt;tr style=&quot;height:21px;&quot;&gt;&lt;td style=&quot;overflow:hidden;padding:2px 3px 2px 3px;vertical-align:bottom;&quot;&gt;2&lt;/td&gt;&lt;td style=&quot;overflow:hidden;padding:2px 3px 2px 3px;vertical-align:bottom;&quot;&gt;Bob Johnson&lt;/td&gt;&lt;td style=&quot;overflow:hidden;padding:2px 3px 2px 3px;vertical-align:bottom;&quot;&gt;Java&lt;/td&gt;&lt;td style=&quot;overflow:hidden;padding:2px 3px 2px 3px;vertical-align:bottom;&quot;&gt;Dr. John Doe&lt;/td&gt;&lt;td style=&quot;overflow:hidden;padding:2px 3px 2px 3px;vertical-align:bottom;&quot;&gt;john.doe@university.edu&lt;/td&gt;&lt;/tr&gt;&lt;tr style=&quot;height:21px;&quot;&gt;&lt;td style=&quot;overflow:hidden;padding:2px 3px 2px 3px;vertical-align:bottom;&quot;&gt;2&lt;/td&gt;&lt;td style=&quot;overflow:hidden;padding:2px 3px 2px 3px;vertical-align:bottom;&quot;&gt;Bob Johnson&lt;/td&gt;&lt;td style=&quot;overflow:hidden;padding:2px 3px 2px 3px;vertical-align:bottom;&quot;&gt;C++&lt;/td&gt;&lt;td style=&quot;overflow:hidden;padding:2px 3px 2px 3px;vertical-align:bottom;&quot;&gt;Dr. John Doe&lt;/td&gt;&lt;td style=&quot;overflow:hidden;padding:2px 3px 2px 3px;vertical-align:bottom;&quot;&gt;john.doe@university.edu&lt;/td&gt;&lt;/tr&gt;&lt;tr style=&quot;height:21px;&quot;&gt;&lt;td style=&quot;overflow:hidden;padding:2px 3px 2px 3px;vertical-align:bottom;&quot;&gt;2&lt;/td&gt;&lt;td style=&quot;overflow:hidden;padding:2px 3px 2px 3px;vertical-align:bottom;&quot;&gt;Bob Johnson&lt;/td&gt;&lt;td style=&quot;overflow:hidden;padding:2px 3px 2px 3px;vertical-align:bottom;&quot;&gt;Java Script&lt;/td&gt;&lt;td style=&quot;overflow:hidden;padding:2px 3px 2px 3px;vertical-align:bottom;&quot;&gt;Dr. John Doe&lt;/td&gt;&lt;td style=&quot;overflow:hidden;padding:2px 3px 2px 3px;vertical-align:bottom;&quot;&gt;john.doe@university.edu&lt;/td&gt;&lt;/tr&gt;&lt;tr style=&quot;height:21px;&quot;&gt;&lt;td style=&quot;overflow:hidden;padding:2px 3px 2px 3px;vertical-align:bottom;&quot;&gt;3&lt;/td&gt;&lt;td style=&quot;overflow:hidden;padding:2px 3px 2px 3px;vertical-align:bottom;&quot;&gt;Carol Lee&lt;/td&gt;&lt;td style=&quot;overflow:hidden;padding:2px 3px 2px 3px;vertical-align:bottom;&quot;&gt;Phyton&lt;/td&gt;&lt;td style=&quot;overflow:hidden;padding:2px 3px 2px 3px;vertical-align:bottom;&quot;&gt;Dr. Emily Brown&lt;/td&gt;&lt;td style=&quot;overflow:hidden;padding:2px 3px 2px 3px;vertical-align:bottom;&quot;&gt;emily.brown@university.edu&lt;/td&gt;&lt;/tr&gt;&lt;tr style=&quot;height:21px;&quot;&gt;&lt;td style=&quot;overflow:hidden;padding:2px 3px 2px 3px;vertical-align:bottom;&quot;&gt;3&lt;/td&gt;&lt;td style=&quot;overflow:hidden;padding:2px 3px 2px 3px;vertical-align:bottom;&quot;&gt;Carol Lee&lt;/td&gt;&lt;td style=&quot;overflow:hidden;padding:2px 3px 2px 3px;vertical-align:bottom;&quot;&gt;R&lt;/td&gt;&lt;td style=&quot;overflow:hidden;padding:2px 3px 2px 3px;vertical-align:bottom;&quot;&gt;Dr. Emily Brown&lt;/td&gt;&lt;td style=&quot;overflow:hidden;padding:2px 3px 2px 3px;vertical-align:bottom;&quot;&gt;emily.brown@university.edu&lt;/td&gt;&lt;/tr&gt;&lt;tr style=&quot;height:21px;&quot;&gt;&lt;td style=&quot;overflow:hidden;padding:2px 3px 2px 3px;vertical-align:bottom;&quot;&gt;4&lt;/td&gt;&lt;td style=&quot;overflow:hidden;padding:2px 3px 2px 3px;vertical-align:bottom;&quot;&gt;Alice Smith&lt;/td&gt;&lt;td style=&quot;overflow:hidden;padding:2px 3px 2px 3px;vertical-align:bottom;&quot;&gt;SQL&lt;/td&gt;&lt;td style=&quot;overflow:hidden;padding:2px 3px 2px 3px;vertical-align:bottom;&quot;&gt;Dr. Jane White&lt;/td&gt;&lt;td style=&quot;overflow:hidden;padding:2px 3px 2px 3px;vertical-align:bottom;&quot;&gt;jane.white@university.edu&lt;/td&gt;&lt;/tr&gt;&lt;tr style=&quot;height:21px;&quot;&gt;&lt;td style=&quot;overflow:hidden;padding:2px 3px 2px 3px;vertical-align:bottom;&quot;&gt;4&lt;/td&gt;&lt;td style=&quot;overflow:hidden;padding:2px 3px 2px 3px;vertical-align:bottom;&quot;&gt;Alice Smith&lt;/td&gt;&lt;td style=&quot;overflow:hidden;padding:2px 3px 2px 3px;vertical-align:bottom;&quot;&gt;C#&lt;/td&gt;&lt;td style=&quot;overflow:hidden;padding:2px 3px 2px 3px;vertical-align:bottom;&quot;&gt;Dr. Jane White&lt;/td&gt;&lt;td style=&quot;overflow:hidden;padding:2px 3px 2px 3px;vertical-align:bottom;&quot;&gt;jane.white@university.edu&lt;/td&gt;&lt;/tr&gt;&lt;/tbody&gt;&lt;/table&gt;" id="SAuL4ZHzkhVfNu2EItm8-118">
          <mxCell style="text;whiteSpace=wrap;html=1;" parent="1" vertex="1">
            <mxGeometry x="-1640" y="-880" width="560" height="290" as="geometry" />
          </mxCell>
        </UserObject>
        <mxCell id="SAuL4ZHzkhVfNu2EItm8-121" value="" style="html=1;shadow=0;dashed=0;align=center;verticalAlign=middle;shape=mxgraph.arrows2.uTurnArrow;dy=11;arrowHead=43;dx2=25;rotation=-179;" parent="1" vertex="1">
          <mxGeometry x="-1110.7" y="-590" width="100" height="180" as="geometry" />
        </mxCell>
        <mxCell id="SAuL4ZHzkhVfNu2EItm8-122" value="2NF" style="text;strokeColor=none;fillColor=none;html=1;fontSize=24;fontStyle=1;verticalAlign=middle;align=center;" parent="1" vertex="1">
          <mxGeometry x="-1140" y="-525" width="100" height="50" as="geometry" />
        </mxCell>
        <UserObject label="&lt;table xmlns=&quot;http://www.w3.org/1999/xhtml&quot; cellspacing=&quot;0&quot; cellpadding=&quot;0&quot; dir=&quot;ltr&quot; border=&quot;1&quot; style=&quot;table-layout:fixed;font-size:10pt;font-family:Arial;width:0px;border-collapse:collapse;border:none&quot; data-sheets-root=&quot;1&quot; data-sheets-baot=&quot;1&quot;&gt;&lt;colgroup&gt;&lt;col width=&quot;100&quot;&gt;&lt;col width=&quot;137&quot;&gt;&lt;col width=&quot;106&quot;&gt;&lt;col width=&quot;172&quot;&gt;&lt;col width=&quot;137&quot;&gt;&lt;col width=&quot;172&quot;&gt;&lt;/colgroup&gt;&lt;tbody&gt;&lt;tr style=&quot;height:21px;&quot;&gt;&lt;td style=&quot;overflow:hidden;padding:2px 3px 2px 3px;vertical-align:bottom;&quot;&gt;2NF&lt;/td&gt;&lt;td style=&quot;overflow:hidden;padding:2px 3px 2px 3px;vertical-align:bottom;&quot;&gt;&lt;/td&gt;&lt;td style=&quot;overflow:hidden;padding:2px 3px 2px 3px;vertical-align:bottom;&quot;&gt;&lt;/td&gt;&lt;td style=&quot;overflow:hidden;padding:2px 3px 2px 3px;vertical-align:bottom;&quot;&gt;&lt;/td&gt;&lt;td style=&quot;overflow:hidden;padding:2px 3px 2px 3px;vertical-align:bottom;&quot;&gt;&lt;/td&gt;&lt;td style=&quot;overflow:hidden;padding:2px 3px 2px 3px;vertical-align:bottom;&quot;&gt;&lt;/td&gt;&lt;/tr&gt;&lt;tr style=&quot;height:21px;&quot;&gt;&lt;td style=&quot;overflow:hidden;padding:2px 3px 2px 3px;vertical-align:bottom;background-color:#f9cb9c;font-weight:bold;text-align:center;&quot;&gt;Student ID (PK)&lt;/td&gt;&lt;td style=&quot;overflow:hidden;padding:2px 3px 2px 3px;vertical-align:bottom;background-color:#f9cb9c;font-weight:bold;text-align:center;&quot;&gt;StudentName&lt;/td&gt;&lt;td style=&quot;overflow:hidden;padding:2px 3px 2px 3px;vertical-align:bottom;background-color:#f9cb9c;font-weight:bold;text-align:center;&quot;&gt;Skills&lt;/td&gt;&lt;td style=&quot;overflow:hidden;padding:2px 3px 2px 3px;vertical-align:bottom;&quot;&gt;&lt;/td&gt;&lt;td style=&quot;overflow:hidden;padding:2px 3px 2px 3px;vertical-align:bottom;background-color:#f9cb9c;font-weight:bold;text-align:center;&quot;&gt;InstructorName (PK)&lt;/td&gt;&lt;td style=&quot;overflow:hidden;padding:2px 3px 2px 3px;vertical-align:bottom;background-color:#f9cb9c;font-weight:bold;text-align:center;&quot;&gt;InstructorEmail&lt;/td&gt;&lt;/tr&gt;&lt;tr style=&quot;height:21px;&quot;&gt;&lt;td style=&quot;overflow:hidden;padding:2px 3px 2px 3px;vertical-align:bottom;&quot;&gt;1&lt;/td&gt;&lt;td style=&quot;overflow:hidden;padding:2px 3px 2px 3px;vertical-align:bottom;&quot;&gt;Alice Smith&lt;/td&gt;&lt;td style=&quot;overflow:hidden;padding:2px 3px 2px 3px;vertical-align:bottom;&quot;&gt;Phyton&lt;/td&gt;&lt;td style=&quot;overflow:hidden;padding:2px 3px 2px 3px;vertical-align:bottom;&quot;&gt;&lt;/td&gt;&lt;td style=&quot;overflow:hidden;padding:2px 3px 2px 3px;vertical-align:bottom;&quot;&gt;Dr. John Doe&lt;/td&gt;&lt;td style=&quot;overflow:hidden;padding:2px 3px 2px 3px;vertical-align:bottom;&quot;&gt;john.doe@university.edu&lt;/td&gt;&lt;/tr&gt;&lt;tr style=&quot;height:21px;&quot;&gt;&lt;td style=&quot;overflow:hidden;padding:2px 3px 2px 3px;vertical-align:bottom;&quot;&gt;1&lt;/td&gt;&lt;td style=&quot;overflow:hidden;padding:2px 3px 2px 3px;vertical-align:bottom;&quot;&gt;Alice Smith&lt;/td&gt;&lt;td style=&quot;overflow:hidden;padding:2px 3px 2px 3px;vertical-align:bottom;&quot;&gt;SQL&lt;/td&gt;&lt;td style=&quot;overflow:hidden;padding:2px 3px 2px 3px;vertical-align:bottom;&quot;&gt;&lt;/td&gt;&lt;td style=&quot;overflow:hidden;padding:2px 3px 2px 3px;vertical-align:bottom;&quot;&gt;Dr. Emily Brown&lt;/td&gt;&lt;td style=&quot;overflow:hidden;padding:2px 3px 2px 3px;vertical-align:bottom;&quot;&gt;emily.brown@university.edu&lt;/td&gt;&lt;/tr&gt;&lt;tr style=&quot;height:21px;&quot;&gt;&lt;td style=&quot;overflow:hidden;padding:2px 3px 2px 3px;vertical-align:bottom;&quot;&gt;2&lt;/td&gt;&lt;td style=&quot;overflow:hidden;padding:2px 3px 2px 3px;vertical-align:bottom;&quot;&gt;Bob Johnson&lt;/td&gt;&lt;td style=&quot;overflow:hidden;padding:2px 3px 2px 3px;vertical-align:bottom;&quot;&gt;Java&lt;/td&gt;&lt;td style=&quot;overflow:hidden;padding:2px 3px 2px 3px;vertical-align:bottom;&quot;&gt;&lt;/td&gt;&lt;td style=&quot;overflow:hidden;padding:2px 3px 2px 3px;vertical-align:bottom;&quot;&gt;Dr. Jane White&lt;/td&gt;&lt;td style=&quot;overflow:hidden;padding:2px 3px 2px 3px;vertical-align:bottom;&quot;&gt;jane.white@university.edu&lt;/td&gt;&lt;/tr&gt;&lt;tr style=&quot;height:21px;&quot;&gt;&lt;td style=&quot;overflow:hidden;padding:2px 3px 2px 3px;vertical-align:bottom;&quot;&gt;2&lt;/td&gt;&lt;td style=&quot;overflow:hidden;padding:2px 3px 2px 3px;vertical-align:bottom;&quot;&gt;Bob Johnson&lt;/td&gt;&lt;td style=&quot;overflow:hidden;padding:2px 3px 2px 3px;vertical-align:bottom;&quot;&gt;C++&lt;/td&gt;&lt;td style=&quot;overflow:hidden;padding:2px 3px 2px 3px;vertical-align:bottom;&quot;&gt;&lt;/td&gt;&lt;td style=&quot;overflow:hidden;padding:2px 3px 2px 3px;vertical-align:bottom;&quot;&gt;&lt;/td&gt;&lt;td style=&quot;overflow:hidden;padding:2px 3px 2px 3px;vertical-align:bottom;&quot;&gt;&lt;/td&gt;&lt;/tr&gt;&lt;tr style=&quot;height:21px;&quot;&gt;&lt;td style=&quot;overflow:hidden;padding:2px 3px 2px 3px;vertical-align:bottom;&quot;&gt;2&lt;/td&gt;&lt;td style=&quot;overflow:hidden;padding:2px 3px 2px 3px;vertical-align:bottom;&quot;&gt;Bob Johnson&lt;/td&gt;&lt;td style=&quot;overflow:hidden;padding:2px 3px 2px 3px;vertical-align:bottom;&quot;&gt;Java Script&lt;/td&gt;&lt;td style=&quot;overflow:hidden;padding:2px 3px 2px 3px;vertical-align:bottom;&quot;&gt;&lt;/td&gt;&lt;td style=&quot;overflow:hidden;padding:2px 3px 2px 3px;vertical-align:bottom;&quot;&gt;&lt;/td&gt;&lt;td style=&quot;overflow:hidden;padding:2px 3px 2px 3px;vertical-align:bottom;&quot;&gt;&lt;/td&gt;&lt;/tr&gt;&lt;tr style=&quot;height:21px;&quot;&gt;&lt;td style=&quot;overflow:hidden;padding:2px 3px 2px 3px;vertical-align:bottom;&quot;&gt;3&lt;/td&gt;&lt;td style=&quot;overflow:hidden;padding:2px 3px 2px 3px;vertical-align:bottom;&quot;&gt;Carol Lee&lt;/td&gt;&lt;td style=&quot;overflow:hidden;padding:2px 3px 2px 3px;vertical-align:bottom;&quot;&gt;Phyton&lt;/td&gt;&lt;td style=&quot;overflow:hidden;padding:2px 3px 2px 3px;vertical-align:bottom;&quot;&gt;&lt;/td&gt;&lt;td style=&quot;overflow:hidden;padding:2px 3px 2px 3px;vertical-align:bottom;&quot;&gt;&lt;/td&gt;&lt;td style=&quot;overflow:hidden;padding:2px 3px 2px 3px;vertical-align:bottom;&quot;&gt;&lt;/td&gt;&lt;/tr&gt;&lt;tr style=&quot;height:21px;&quot;&gt;&lt;td style=&quot;overflow:hidden;padding:2px 3px 2px 3px;vertical-align:bottom;&quot;&gt;3&lt;/td&gt;&lt;td style=&quot;overflow:hidden;padding:2px 3px 2px 3px;vertical-align:bottom;&quot;&gt;Carol Lee&lt;/td&gt;&lt;td style=&quot;overflow:hidden;padding:2px 3px 2px 3px;vertical-align:bottom;&quot;&gt;R&lt;/td&gt;&lt;td style=&quot;overflow:hidden;padding:2px 3px 2px 3px;vertical-align:bottom;&quot;&gt;&lt;/td&gt;&lt;td style=&quot;overflow:hidden;padding:2px 3px 2px 3px;vertical-align:bottom;&quot;&gt;&lt;/td&gt;&lt;td style=&quot;overflow:hidden;padding:2px 3px 2px 3px;vertical-align:bottom;&quot;&gt;&lt;/td&gt;&lt;/tr&gt;&lt;tr style=&quot;height:21px;&quot;&gt;&lt;td style=&quot;overflow:hidden;padding:2px 3px 2px 3px;vertical-align:bottom;&quot;&gt;4&lt;/td&gt;&lt;td style=&quot;overflow:hidden;padding:2px 3px 2px 3px;vertical-align:bottom;&quot;&gt;Alice Smith&lt;/td&gt;&lt;td style=&quot;overflow:hidden;padding:2px 3px 2px 3px;vertical-align:bottom;&quot;&gt;SQL&lt;/td&gt;&lt;td style=&quot;overflow:hidden;padding:2px 3px 2px 3px;vertical-align:bottom;&quot;&gt;&lt;/td&gt;&lt;td style=&quot;overflow:hidden;padding:2px 3px 2px 3px;vertical-align:bottom;&quot;&gt;&lt;/td&gt;&lt;td style=&quot;overflow:hidden;padding:2px 3px 2px 3px;vertical-align:bottom;&quot;&gt;&lt;/td&gt;&lt;/tr&gt;&lt;tr style=&quot;height:21px;&quot;&gt;&lt;td style=&quot;overflow:hidden;padding:2px 3px 2px 3px;vertical-align:bottom;&quot;&gt;4&lt;/td&gt;&lt;td style=&quot;overflow:hidden;padding:2px 3px 2px 3px;vertical-align:bottom;&quot;&gt;Alice Smith&lt;/td&gt;&lt;td style=&quot;overflow:hidden;padding:2px 3px 2px 3px;vertical-align:bottom;&quot;&gt;C#&lt;/td&gt;&lt;td style=&quot;overflow:hidden;padding:2px 3px 2px 3px;vertical-align:bottom;&quot;&gt;&lt;/td&gt;&lt;td style=&quot;overflow:hidden;padding:2px 3px 2px 3px;vertical-align:bottom;&quot;&gt;&lt;/td&gt;&lt;td style=&quot;overflow:hidden;padding:2px 3px 2px 3px;vertical-align:bottom;&quot;&gt;&lt;/td&gt;&lt;/tr&gt;&lt;/tbody&gt;&lt;/table&gt;" id="SAuL4ZHzkhVfNu2EItm8-123">
          <mxCell style="text;whiteSpace=wrap;html=1;" parent="1" vertex="1">
            <mxGeometry x="-1654" y="-410" width="560" height="270" as="geometry" />
          </mxCell>
        </UserObject>
      </root>
    </mxGraphModel>
  </diagram>
</mxfile>
